<?xml version="1.0" encoding="utf-8"?>
<!-- Generator: Adobe Illustrator 23.0.2, SVG Export Plug-In . SVG Version: 6.00 Build 0)  -->
<svg version="1.1" id="Ebene_1" xmlns="http://www.w3.org/2000/svg" xmlns:xlink="http://www.w3.org/1999/xlink" x="0px" y="0px"
	 viewBox="0 0 18 12" style="enable-background:new 0 0 18 12;" xml:space="preserve">
<style type="text/css">
	.st0{fill:#0060E6;}
	.st1{fill:#FFFFFF;}
	.st2{fill:#ED2200;}
	.st3{display:none;}
	.st4{display:inline;fill:#404040;}
	.st5{display:inline;fill:#FF4400;}
	.st6{display:inline;fill:#FFC900;}
</style>
<g>
	<rect x="0" y="0" class="st0" width="18" height="12"/>
	<polygon class="st1" points="18,0 15.99,0 10.5,3.66 10.5,0 7.5,0 7.5,3.66 2.01,0 0,0 0,1.34 3.99,4 0,4 0,8 3.99,8 0,10.66 0,12 
		2.01,12 7.5,8.34 7.5,12 10.5,12 10.5,8.34 15.99,12 18,12 18,10.66 14.01,8 18,8 18,4 14.01,4 18,1.34 	"/>
	<path class="st2" d="M9.9,4.8H18v2.4H9.9V12H8.1V7.2H0V4.8h8.1V0h1.8V4.8z M0,12h1.34l6-4H6L0,12z M18,0h-1.34l-6,4H12L18,0z M12,8
		l6,4v-0.89L13.34,8H12z M6,4L0,0v0.89L4.66,4H6z"/>
</g>
<g class="st3">
	<rect x="0" y="0" class="st4" width="18" height="12"/>
	<rect x="0" y="4" class="st5" width="18" height="8"/>
	<rect x="0" y="8" class="st6" width="18" height="4"/>
</g>
</svg>
